<svg width="150" height="150" viewBox="0 0 150 150" fill="none" xmlns="http://www.w3.org/2000/svg">
<circle opacity="0.5" cx="75" cy="75" r="50" stroke="white" stroke-width="4"/>
<path d="M55 62.5C55 60.1703 55 59.0054 55.3806 58.0866C55.8881 56.8614 56.8614 55.8881 58.0866 55.3806C59.0054 55 60.1703 55 62.5 55C64.8297 55 65.9946 55 66.9134 55.3806C68.1386 55.8881 69.1119 56.8614 69.6194 58.0866C70 59.0054 70 60.1703 70 62.5V87.5C70 89.8297 70 90.9946 69.6194 91.9134C69.1119 93.1386 68.1386 94.1119 66.9134 94.6194C65.9946 95 64.8297 95 62.5 95C60.1703 95 59.0054 95 58.0866 94.6194C56.8614 94.1119 55.8881 93.1386 55.3806 91.9134C55 90.9946 55 89.8297 55 87.5V62.5Z" stroke="white" stroke-width="4"/>
<path d="M80 62.5C80 60.1703 80 59.0054 80.3806 58.0866C80.8881 56.8614 81.8614 55.8881 83.0866 55.3806C84.0054 55 85.1703 55 87.5 55C89.8297 55 90.9946 55 91.9134 55.3806C93.1386 55.8881 94.1119 56.8614 94.6194 58.0866C95 59.0054 95 60.1703 95 62.5V87.5C95 89.8297 95 90.9946 94.6194 91.9134C94.1119 93.1386 93.1386 94.1119 91.9134 94.6194C90.9946 95 89.8297 95 87.5 95C85.1703 95 84.0054 95 83.0866 94.6194C81.8614 94.1119 80.8881 93.1386 80.3806 91.9134C80 90.9946 80 89.8297 80 87.5V62.5Z" stroke="white" stroke-width="4"/>
</svg>
